<svg width="103" height="36" viewBox="0 0 103 36" fill="none" xmlns="http://www.w3.org/2000/svg">
  <path d="M1.32255 6.14638L1.71538 3.80901H12.7279L12.335 6.14638H8.2299L6.39667 17.2178H3.59444L5.42768 6.14638H1.32255Z" fill="white"/>
  <path d="M12.3154 17.2178L14.5415 3.80901H19.8316C20.8443 3.80901 21.678 3.98797 22.3327 4.34589C22.9918 4.70381 23.4545 5.21231 23.7207 5.8714C23.9913 6.52613 24.0546 7.2987 23.9106 8.18913C23.7622 9.07956 23.4414 9.8434 22.9481 10.4807C22.4593 11.1179 21.822 11.609 21.0363 11.9538C20.255 12.2943 19.3493 12.4645 18.3192 12.4645H14.7772L15.17 10.186H18.2472C18.7884 10.186 19.2511 10.1118 19.6352 9.96344C20.0193 9.81503 20.3227 9.59242 20.5453 9.29562C20.7723 8.99881 20.9207 8.62998 20.9905 8.18913C21.0647 7.73955 21.0385 7.36417 20.9119 7.063C20.7854 6.75746 20.5562 6.52613 20.2245 6.36899C19.8928 6.20749 19.4563 6.12674 18.915 6.12674H17.0032L15.1504 17.2178H12.3154ZM20.5649 11.1158L22.8892 17.2178H19.7596L17.5074 11.1158H20.5649Z" fill="white"/>
  <path d="M26.8339 17.2178H23.796L30.651 3.80901H34.3044L36.7007 17.2178H33.6627L32.0325 6.87313H31.9277L26.8339 17.2178ZM27.5279 11.9473H34.7037L34.324 14.1602H27.1482L27.5279 11.9473Z" fill="white"/>
  <path d="M41.2886 3.80901L42.8469 13.9965H42.9713L47.9014 3.80901H51.0441L44.1956 17.2178H40.5423L38.1394 3.80901H41.2886Z" fill="white"/>
  <path d="M50.4319 17.2178L52.658 3.80901H61.6932L61.3003 6.14638H55.1001L54.5763 9.34145H60.3117L59.9189 11.6788H54.1835L53.6597 14.8804H59.8861L59.4933 17.2178H50.4319Z" fill="white"/>
  <path d="M61.721 17.2178L63.9471 3.80901H66.782L64.9488 14.8804H70.6973L70.3045 17.2178H61.721Z" fill="white"/>
  <path d="M0 34.1185L2.22607 20.7097H5.06103L4.14441 26.2421H9.89945L10.8161 20.7097H13.6445L11.4184 34.1185H8.59L9.50662 28.5795H3.75158L2.83496 34.1185H0Z" fill="white"/>
  <path d="M13.7558 34.1185L15.9819 20.7097H25.0171L24.6242 23.047H18.424L17.9002 26.2421H23.6356L23.2428 28.5795H17.5074L16.9836 31.7811H23.21L22.8172 34.1185H13.7558Z" fill="white"/>
  <path d="M25.0449 34.1185L27.271 20.7097H30.1059L28.2727 31.7811H34.0212L33.6284 34.1185H25.0449Z" fill="white"/>
  <path d="M35.5058 34.1185L37.7318 20.7097H43.022C44.0347 20.7097 44.8662 20.9039 45.5165 21.2924C46.1713 21.6765 46.6296 22.2112 46.8915 22.8965C47.1577 23.5774 47.2188 24.363 47.0748 25.2535C46.9264 26.1483 46.6034 26.9361 46.1058 27.617C45.6126 28.2936 44.9709 28.8217 44.1809 29.2015C43.3909 29.5812 42.4786 29.7711 41.4441 29.7711H38.0723L38.4455 27.4992H41.359C41.909 27.4992 42.3782 27.4053 42.7667 27.2176C43.1595 27.0256 43.4716 26.7615 43.7029 26.4254C43.9343 26.085 44.0849 25.6943 44.1547 25.2535C44.2289 24.8039 44.2049 24.4132 44.0827 24.0815C43.9605 23.7498 43.7357 23.4923 43.4083 23.3089C43.0853 23.1212 42.651 23.0274 42.1054 23.0274H40.1936L38.3407 34.1185H35.5058Z" fill="white"/>
  <path d="M47.4431 34.1185L49.6691 20.7097H58.7043L58.3115 23.047H52.1113L51.5875 26.2421H57.3229L56.93 28.5795H51.1946L50.6709 31.7811H56.8973L56.5045 34.1185H47.4431Z" fill="white"/>
  <path d="M58.7322 34.1185L60.9582 20.7097H66.2484C67.2611 20.7097 68.0948 20.8886 68.7495 21.2465C69.4086 21.6045 69.8712 22.113 70.1375 22.7721C70.4081 23.4268 70.4714 24.1994 70.3274 25.0898C70.179 25.9802 69.8582 26.7441 69.3649 27.3813C68.8761 28.0186 68.2388 28.5096 67.4531 28.8545C66.6718 29.1949 65.7661 29.3651 64.736 29.3651H61.1939L61.5868 27.0867H64.664C65.2052 27.0867 65.6679 27.0125 66.052 26.8641C66.4361 26.7157 66.7395 26.4931 66.9621 26.1963C67.189 25.8995 67.3375 25.5306 67.4073 25.0898C67.4815 24.6402 67.4553 24.2648 67.3287 23.9637C67.2021 23.6581 66.973 23.4268 66.6413 23.2696C66.3095 23.1081 65.8731 23.0274 65.3318 23.0274H63.42L61.5671 34.1185H58.7322ZM66.9817 28.0164L69.306 34.1185H66.1764L63.9242 28.0164H66.9817Z" fill="white"/>
  <path d="M78.3547 11.1699C80.9873 -2.40041 98.133 -2.38474 100.752 11.1856C102.289 19.146 98.0661 25.8841 94.3644 30.0524C89.5535 35.6935 89.5535 35.7094 84.7292 30.0524C81.0408 25.8841 76.8179 19.1303 78.3547 11.1699Z" stroke="white" stroke-width="2"/>
  <path d="M89.5538 18.9109C91.8565 18.9109 93.7232 16.722 93.7232 14.0219C93.7232 11.3217 91.8565 9.13278 89.5538 9.13278C87.251 9.13278 85.3843 11.3217 85.3843 14.0219C85.3843 16.722 87.251 18.9109 89.5538 18.9109Z" stroke="white" stroke-width="2"/>
</svg>
